<?xml version="1.0" standalone="no"?>
<!DOCTYPE svg PUBLIC "-//W3C//DTD SVG 20010904//EN"
 "http://www.w3.org/TR/2001/REC-SVG-20010904/DTD/svg10.dtd">
<svg version="1.0" xmlns="http://www.w3.org/2000/svg"
 width="300.000000pt" height="100.000000pt" viewBox="0 0 300.000000 100.000000"
 preserveAspectRatio="xMidYMid meet">
<metadata>
Created by potrace 1.16, written by Peter Selinger 2001-2019
</metadata>
<g transform="translate(0.000000,100.000000) scale(0.033784,-0.033670)"
fill="#000000" stroke="none">
<path d="M6725 2740 c-159 -34 -245 -128 -245 -267 0 -118 61 -197 195 -254
182 -76 221 -109 219 -183 -1 -52 -25 -90 -67 -107 -51 -22 -190 -17 -262 9
-32 12 -62 22 -66 22 -3 0 -12 -26 -19 -57 -7 -32 -14 -63 -17 -69 -6 -17 85
-52 167 -65 246 -38 440 83 440 275 0 78 -16 128 -56 175 -33 38 -142 101
-238 137 -27 10 -67 34 -88 54 -51 50 -53 94 -4 147 33 36 37 38 109 41 67 4
133 -8 193 -34 6 -3 14 5 17 18 3 13 12 44 20 70 l15 47 -54 21 c-62 23 -198
34 -259 20z"/>
<path d="M3410 2337 c0 -333 2 -401 16 -440 19 -55 69 -103 117 -112 19 -4
133 -5 254 -3 l220 3 41 27 c72 48 77 65 80 301 l3 207 -75 0 -75 0 -3 -171
-3 -171 -28 -24 c-27 -23 -34 -24 -187 -24 l-159 0 -20 26 c-20 26 -21 38 -21
324 0 163 -3 331 -6 373 l-7 77 -73 0 -74 0 0 -393z"/>
<path d="M4420 1585 l0 -1145 75 0 75 0 0 1145 0 1145 -75 0 -75 0 0 -1145z"/>
<path d="M4856 2623 c31 -60 74 -138 96 -175 21 -36 38 -69 38 -72 0 -3 25
-50 55 -103 l55 -98 0 -197 0 -198 85 0 85 0 0 195 c0 161 3 202 16 228 21 42
103 186 179 317 33 58 73 129 88 158 l28 52 -96 0 -96 0 -46 -97 c-25 -54 -70
-151 -98 -216 l-52 -117 -27 62 c-16 35 -40 90 -56 123 -15 33 -47 102 -70
153 l-43 92 -99 0 -99 0 57 -107z"/>
<path d="M5855 2643 c-14 -49 -36 -119 -50 -158 -13 -38 -49 -151 -80 -250
-32 -99 -70 -218 -85 -265 -15 -47 -35 -109 -43 -138 l-16 -53 91 3 92 3 8 35
c5 19 23 79 39 133 l31 97 148 0 149 0 42 -135 42 -135 93 0 92 0 -10 38 c-6
20 -16 53 -23 72 -8 19 -41 123 -76 230 -34 107 -79 249 -100 315 -21 66 -51
159 -66 207 l-28 87 -112 1 -112 0 -26 -87z m145 -91 c0 -9 24 -96 54 -192
l54 -175 -115 -3 c-64 -1 -118 -1 -120 2 -3 2 12 55 32 116 19 62 43 142 51
178 8 37 17 75 20 85 6 21 24 13 24 -11z"/>
<path d="M3060 2140 c0 -167 -1 -181 -20 -200 -24 -24 -88 -27 -129 -6 -56 30
-66 58 -69 209 l-4 137 -79 0 -79 0 0 -160 c0 -147 -2 -162 -20 -180 -24 -24
-88 -27 -129 -5 -53 27 -71 85 -71 223 l0 122 -75 0 -75 0 0 -224 c0 -241 -6
-277 -56 -343 -99 -130 -297 -109 -377 41 -20 37 -22 60 -27 231 l-5 190 -79
3 -79 3 7 -193 c5 -116 13 -212 22 -242 39 -137 164 -249 307 -277 177 -34
373 100 422 288 10 37 20 70 22 72 2 3 13 -5 26 -16 39 -36 71 -47 137 -47 75
0 113 16 157 67 l30 34 41 -43 c32 -32 54 -45 93 -53 83 -18 160 1 205 51 54
59 59 80 62 296 l4 202 -81 0 -81 0 0 -180z"/>
<path d="M3710 1635 l0 -75 75 0 75 0 0 75 0 75 -75 0 -75 0 0 -75z"/>
<path d="M3920 1635 l0 -75 70 0 70 0 0 75 0 75 -70 0 -70 0 0 -75z"/>
<path d="M5235 1400 c-195 -35 -314 -142 -381 -340 -13 -39 -18 -84 -18 -155
0 -239 119 -405 331 -460 75 -20 236 -19 325 1 l70 16 -6 32 c-4 17 -9 48 -13
69 -6 43 -4 42 -80 22 -128 -33 -274 -5 -347 68 -51 51 -73 96 -92 189 -14 65
-13 80 1 152 32 159 115 243 264 267 61 9 161 0 216 -21 29 -11 27 -14 49 72
l14 58 -50 15 c-64 19 -217 27 -283 15z"/>
<path d="M8246 1399 c-120 -20 -199 -60 -277 -140 -173 -177 -172 -527 0 -700
63 -62 143 -104 229 -120 66 -13 269 -6 325 11 42 12 45 24 26 109 l-10 49
-37 -16 c-26 -11 -67 -16 -142 -17 -90 0 -113 3 -158 24 -121 55 -189 186
-180 345 9 143 71 240 187 294 79 37 220 35 312 -2 13 -6 19 6 34 59 11 44 14
70 8 76 -14 14 -157 38 -218 37 -27 0 -72 -4 -99 -9z"/>
<path d="M1088 1004 c4 -360 3 -387 -14 -405 -17 -19 -30 -20 -232 -18 -228 1
-261 7 -310 52 -55 50 -94 154 -107 280 l-6 57 -76 0 -76 0 7 -89 c15 -205 98
-350 236 -415 42 -20 64 -21 342 -24 326 -4 342 -1 375 57 l16 27 38 -41 38
-40 207 -3 c240 -4 271 3 328 70 30 34 35 37 40 21 3 -11 22 -35 42 -54 l35
-34 212 -3 c251 -4 279 2 336 64 l40 43 21 -34 c42 -67 67 -75 251 -75 194 0
231 8 282 62 41 43 44 42 77 -13 5 -9 25 -24 44 -33 30 -14 88 -16 471 -16
l438 0 -7 77 c-15 168 -50 263 -127 348 -57 61 -125 95 -212 103 l-59 5 98 98
98 99 -53 54 -54 55 -134 -137 c-74 -75 -161 -165 -194 -198 l-60 -62 25 -56
c24 -53 41 -66 62 -47 23 22 129 51 184 51 129 0 243 -94 265 -219 l5 -31
-356 2 -356 3 -33 38 c-18 21 -38 58 -44 82 -7 28 -11 163 -11 364 l0 321 -75
0 -75 0 0 -369 c0 -356 -1 -369 -21 -394 -30 -39 -79 -49 -209 -45 -180 5
-202 31 -208 251 l-4 137 -74 0 -74 0 0 -152 c0 -171 -6 -191 -60 -219 -50
-27 -327 -28 -380 -1 -59 29 -77 79 -85 237 l-7 135 -74 0 -74 0 6 -147 c6
-165 2 -182 -55 -220 -32 -22 -44 -23 -196 -23 -152 0 -164 1 -195 23 -19 12
-43 38 -54 57 -20 33 -21 53 -25 383 l-3 347 -77 0 -76 0 3 -386z"/>
<path d="M5670 915 l0 -475 280 0 280 0 0 75 0 75 -195 0 -195 0 0 400 0 400
-85 0 -85 0 0 -475z"/>
<path d="M6320 915 l0 -475 85 0 85 0 0 475 0 475 -85 0 -85 0 0 -475z"/>
<path d="M6650 915 l0 -475 81 0 81 0 -4 373 -4 372 71 -140 c39 -77 118 -219
175 -315 57 -96 117 -200 135 -230 l31 -55 92 -3 92 -3 0 476 0 475 -80 0 -80
0 1 -262 c1 -145 4 -307 8 -360 3 -53 5 -95 3 -93 -2 2 -34 65 -72 142 -37 76
-126 235 -197 353 l-130 215 -101 3 -102 3 0 -476z"/>
<path d="M7560 915 l0 -475 85 0 85 0 0 475 0 475 -85 0 -85 0 0 -475z"/>
<path d="M1770 1165 l0 -75 65 0 65 0 0 75 0 75 -65 0 -65 0 0 -75z"/>
<path d="M756 1179 c-40 -32 -59 -76 -53 -126 l5 -43 -37 0 c-33 0 -38 -4 -51
-37 -8 -21 -16 -41 -18 -45 -2 -5 71 -8 162 -8 l166 0 0 45 0 45 -45 0 c-36 0
-52 6 -71 25 -20 20 -23 29 -14 44 15 30 27 33 57 17 28 -14 29 -13 52 22 l24
36 -29 23 c-39 31 -110 32 -148 2z"/>
<path d="M2304 356 c-3 -7 -4 -40 -2 -72 l3 -59 73 -3 72 -3 0 76 0 75 -70 0
c-50 0 -72 -4 -76 -14z"/>
<path d="M2520 295 l0 -75 70 0 70 0 0 75 0 75 -70 0 -70 0 0 -75z"/>
</g>
</svg>
